<svg width="18" height="20" viewBox="0 0 18 20" fill="none" xmlns="http://www.w3.org/2000/svg">
<path d="M15.4167 11.4539V8.16671C15.4167 5.21779 13.4137 2.73362 10.7004 1.98654C10.4318 1.31004 9.7755 0.833374 9 0.833374C8.2245 0.833374 7.56817 1.31004 7.29958 1.98654C4.58625 2.73454 2.58333 5.21779 2.58333 8.16671V11.4539L1.01858 13.0186C0.933295 13.1036 0.865656 13.2046 0.819562 13.3158C0.773467 13.4271 0.749826 13.5463 0.750001 13.6667V15.5C0.750001 15.7432 0.846578 15.9763 1.01849 16.1482C1.19039 16.3201 1.42355 16.4167 1.66667 16.4167H16.3333C16.5764 16.4167 16.8096 16.3201 16.9815 16.1482C17.1534 15.9763 17.25 15.7432 17.25 15.5V13.6667C17.2502 13.5463 17.2265 13.4271 17.1804 13.3158C17.1343 13.2046 17.0667 13.1036 16.9814 13.0186L15.4167 11.4539ZM15.4167 14.5834H2.58333V14.0462L4.14808 12.4815C4.23337 12.3965 4.30101 12.2955 4.34711 12.1842C4.3932 12.073 4.41684 11.9538 4.41667 11.8334V8.16671C4.41667 5.63946 6.47275 3.58337 9 3.58337C11.5272 3.58337 13.5833 5.63946 13.5833 8.16671V11.8334C13.5833 12.0772 13.6796 12.31 13.8519 12.4815L15.4167 14.0462V14.5834ZM9 19.1667C9.56769 19.1674 10.1215 18.9913 10.5844 18.6627C11.0474 18.3341 11.3965 17.8695 11.5832 17.3334H6.41683C6.60352 17.8695 6.9526 18.3341 7.41555 18.6627C7.8785 18.9913 8.43231 19.1674 9 19.1667Z" fill="#3670C7"/>
</svg>
