<svg width="22" height="20" viewBox="0 0 22 20" fill="none" xmlns="http://www.w3.org/2000/svg">
<path d="M20.1819 0.246815C19.921 0.265792 19.665 0.326984 19.4238 0.428003H19.4206C19.189 0.519815 18.0881 0.98294 16.4143 1.68494L10.4164 4.211C6.11263 6.02288 1.88194 7.80713 1.88194 7.80713L1.93232 7.78763C1.93232 7.78763 1.64063 7.8835 1.33594 8.09232C1.14771 8.2121 0.985733 8.36882 0.859817 8.553C0.710317 8.77238 0.590067 9.10794 0.634755 9.45488C0.70788 10.0415 1.08813 10.3933 1.36113 10.5875C1.63738 10.7841 1.90063 10.8759 1.90063 10.8759H1.90713L5.87457 12.2125C6.0525 12.7837 7.08357 16.1734 7.33138 16.9543C7.47763 17.4206 7.61982 17.7123 7.79775 17.9349C7.88388 18.0487 7.98463 18.1438 8.10569 18.2201C8.16863 18.2567 8.23573 18.2857 8.30557 18.3063L8.26494 18.2965C8.27713 18.2998 8.28688 18.3095 8.29582 18.3128C8.32832 18.3217 8.35025 18.3249 8.39169 18.3314C9.01975 18.5216 9.52432 18.1316 9.52432 18.1316L9.55275 18.1088L11.8952 15.976L15.8212 18.9879L15.9106 19.0261C16.7288 19.3853 17.5575 19.1854 17.9954 18.8328C18.4366 18.4777 18.6081 18.0235 18.6081 18.0235L18.6365 17.9504L21.6704 2.40807C21.7565 2.02457 21.7784 1.66544 21.6834 1.31688C21.5853 0.964111 21.359 0.660709 21.0488 0.46619C20.7883 0.307846 20.4863 0.231417 20.1819 0.246815ZM20.0998 1.91244C20.0966 1.96363 20.1063 1.95794 20.0836 2.05625V2.06519L17.0781 17.4458C17.0651 17.4678 17.0432 17.5157 16.9831 17.5636C16.9197 17.614 16.8693 17.6457 16.6053 17.5409L11.8034 13.8594L8.90275 16.5033L9.51213 12.6114L17.3576 5.29894C17.681 4.99832 17.5729 4.93494 17.5729 4.93494C17.5957 4.56607 17.0846 4.82688 17.0846 4.82688L7.19163 10.9556L7.18838 10.9393L2.44663 9.34275V9.3395L2.43444 9.33707C2.44275 9.33431 2.45089 9.33105 2.45882 9.32732L2.48482 9.31432L2.51 9.30538C2.51 9.30538 6.74394 7.52113 11.0478 5.70925C13.2025 4.80169 15.3735 3.88763 17.0432 3.18238C18.7129 2.48119 19.9471 1.96688 20.0169 1.93925C20.0836 1.91325 20.0519 1.91325 20.0998 1.91325V1.91244Z" fill="white"/>
</svg>
